<?xml version="1.0" standalone="no"?>
<!DOCTYPE svg PUBLIC "-//W3C//DTD SVG 20010904//EN"
 "http://www.w3.org/TR/2001/REC-SVG-20010904/DTD/svg10.dtd">
<svg version="1.0" xmlns="http://www.w3.org/2000/svg"
 width="512.000000pt" height="512.000000pt" viewBox="0 0 512.000000 512.000000"
 preserveAspectRatio="xMidYMid meet">
<metadata>
Created by potrace 1.14, written by Peter Selinger 2001-2017
</metadata>
<g transform="translate(0.000000,512.000000) scale(0.100000,-0.100000)"
fill="#000000" stroke="none">
<path d="M1110 4013 c-40 -13 -60 -28 -71 -55 -11 -26 -13 -27 -29 -13 -9 8
-24 15 -33 15 -9 0 -18 4 -21 9 -4 5 -25 12 -49 16 -23 4 -51 9 -62 12 -59 13
-136 15 -149 4 -19 -16 -24 -52 -15 -113 9 -63 21 -215 24 -313 2 -38 5 -117
9 -175 3 -58 8 -143 10 -190 2 -47 9 -139 15 -205 6 -66 13 -142 15 -170 3
-27 10 -108 17 -180 19 -213 30 -533 18 -541 -4 -2 -9 -22 -13 -44 -3 -23 -11
-49 -16 -58 -11 -20 -38 -149 -38 -177 0 -11 -3 -41 -7 -66 -6 -36 -4 -49 10
-63 18 -17 25 -38 54 -166 9 -41 20 -81 25 -88 4 -7 29 -12 61 -12 71 0 85 19
85 112 0 43 4 68 11 68 13 0 163 -74 230 -113 114 -67 316 -84 535 -47 181 31
213 62 159 154 -35 61 -50 71 -109 74 -28 2 -78 5 -111 6 -33 2 -73 9 -88 15
-36 14 -87 64 -87 86 0 10 -5 13 -12 9 -8 -5 -9 -2 -5 9 3 9 -7 43 -23 76 -17
33 -30 67 -30 75 0 8 -5 18 -10 21 -6 4 -8 16 -4 27 4 15 3 18 -6 13 -9 -5
-10 -2 -6 13 4 11 3 23 -3 26 -5 3 -7 15 -4 26 3 12 0 20 -6 20 -7 0 -9 5 -6
10 3 6 2 10 -2 10 -10 0 -12 10 -17 120 -3 47 0 101 4 120 5 19 10 51 11 70 2
19 6 40 10 45 7 10 10 44 11 132 0 24 4 40 9 37 5 -3 8 14 8 38 -1 24 4 68 10
98 6 30 13 69 15 85 3 17 10 55 17 85 7 30 13 69 14 86 1 17 4 35 8 40 3 5 4
31 2 57 -1 27 2 47 7 47 6 0 8 14 4 35 -5 23 -3 35 4 35 6 0 9 4 6 9 -5 8 13
133 35 236 6 28 12 64 13 80 1 17 4 35 8 40 3 6 5 32 3 58 -1 27 2 47 7 47 6
0 8 14 3 36 -5 27 -3 34 6 28 7 -4 10 -3 6 3 -4 6 -2 37 4 69 15 80 12 126 -8
142 -12 9 -74 12 -232 11 -119 0 -223 -3 -231 -6z"/>
<path d="M3213 3963 c9 -2 25 -2 35 0 9 3 1 5 -18 5 -19 0 -27 -2 -17 -5z"/>
<path d="M4382 3954 c-47 -33 -13 -111 38 -84 34 18 44 48 25 76 -18 28 -32
30 -63 8z"/>
<path d="M3099 3913 c-13 -16 -12 -17 4 -4 16 13 21 21 13 21 -2 0 -10 -8 -17
-17z"/>
<path d="M4071 3828 c-14 -37 -90 -105 -146 -132 -63 -30 -187 -45 -210 -26
-8 7 -30 16 -48 19 l-32 7 41 21 c32 17 64 55 64 77 0 2 -21 1 -47 -1 -27 -3
-88 2 -138 11 -106 19 -197 21 -228 5 -57 -30 -97 -91 -97 -150 0 -26 -3 -29
-33 -29 -33 0 -73 29 -62 43 3 4 2 5 -1 2 -4 -2 -20 5 -35 16 -102 72 -180 18
-178 -123 1 -78 20 -114 80 -146 42 -22 50 -23 164 -17 106 7 118 6 107 -8 -7
-8 -34 -20 -59 -26 -26 -7 -52 -20 -59 -29 -11 -14 -16 -15 -33 -4 -33 20
-141 15 -179 -8 -44 -27 -69 -81 -54 -115 17 -36 40 -42 83 -18 l37 20 4 -49
c4 -38 12 -57 38 -83 62 -64 117 -54 217 39 l61 56 84 0 c67 0 93 4 128 23 59
29 77 68 88 189 9 99 18 122 51 131 30 7 43 -7 48 -56 5 -43 8 -46 37 -49 60
-6 40 -83 -32 -128 -29 -18 -44 -37 -53 -65 -8 -22 -32 -59 -55 -82 -45 -47
-28 -44 -241 -47 -54 -1 -77 -5 -90 -18 -16 -17 -14 -18 52 -18 48 0 92 -8
140 -25 84 -30 235 -36 235 -11 0 22 60 63 102 71 48 9 106 -18 115 -53 4 -15
-1 -46 -11 -74 -14 -39 -14 -51 -4 -68 11 -17 10 -25 -2 -47 -13 -24 -81 -72
-102 -73 -3 0 -14 20 -23 44 -10 26 -25 46 -36 49 -24 6 -24 0 -1 -38 38 -62
38 -62 -53 -105 -46 -22 -88 -40 -93 -40 -6 0 -23 27 -38 60 -19 41 -32 59
-42 55 -7 -3 -15 -5 -17 -5 -2 0 12 -30 31 -66 l35 -67 -40 -22 c-22 -13 -59
-37 -84 -53 l-44 -31 -39 54 c-21 30 -45 55 -51 55 -20 0 -16 -13 27 -74 l40
-57 -45 -54 c-25 -31 -52 -69 -60 -86 -10 -18 -20 -27 -28 -22 -7 3 -23 14
-37 23 -14 10 -38 25 -53 34 -28 17 -28 18 -12 43 9 13 15 26 13 27 -2 2 -11
7 -20 12 -16 8 -13 15 22 62 58 76 100 160 100 199 0 73 -45 134 -102 136 -27
2 -34 -2 -36 -21 -2 -13 6 -39 17 -58 21 -36 28 -70 12 -60 -4 3 -11 19 -14
35 -9 44 -68 101 -105 101 -51 0 -62 -53 -17 -90 19 -15 45 -63 45 -81 0 -16
-48 29 -55 50 -5 16 -56 48 -85 53 -26 4 -68 -11 -74 -27 -10 -28 12 -62 56
-86 23 -13 48 -35 55 -48 10 -22 8 -29 -18 -59 -36 -41 -49 -72 -49 -116 0
-37 -15 -46 -77 -46 -64 0 -86 -71 -30 -98 37 -18 125 -19 165 -3 29 12 34 11
78 -18 25 -18 49 -29 52 -26 4 3 13 28 22 55 l15 49 68 -40 c60 -36 66 -42 56
-60 -5 -11 -13 -51 -16 -89 -6 -66 -7 -68 -36 -74 -16 -3 -49 -6 -73 -6 -34 0
-44 -4 -44 -16 0 -14 10 -15 74 -9 l74 7 7 -53 c4 -30 15 -77 25 -106 l18 -52
-54 -36 c-57 -38 -76 -37 -89 4 -3 10 -20 25 -38 34 -17 9 -53 33 -79 52 -74
54 -157 65 -193 25 -9 -10 -15 -29 -13 -42 2 -19 10 -24 41 -26 46 -4 47 -14
5 -33 -39 -17 -58 -59 -38 -83 15 -19 61 -21 80 -3 7 6 3 -4 -8 -24 -37 -61
-26 -89 32 -89 13 0 28 11 38 28 9 15 26 36 38 47 22 20 22 20 39 -5 33 -51
59 -70 96 -70 32 0 35 -2 35 -30 0 -32 38 -80 63 -80 27 0 46 26 48 67 3 37
-2 48 -32 80 -78 85 -77 76 -14 118 l57 37 16 -23 c9 -13 33 -43 54 -65 21
-23 38 -45 38 -49 0 -4 -13 -24 -30 -45 -33 -42 -38 -60 -15 -60 8 0 28 20 44
44 l30 43 48 -23 c55 -27 182 -54 263 -55 l55 -1 -59 -18 c-32 -10 -73 -32
-90 -48 -17 -16 -37 -28 -44 -27 -7 2 -8 1 -2 -2 5 -2 10 -20 10 -38 0 -19 5
-46 10 -60 8 -21 16 -26 37 -23 16 2 32 12 38 25 11 21 11 21 22 -7 16 -43 60
-51 87 -17 l21 25 17 -22 c13 -17 24 -22 47 -18 38 5 48 35 31 88 -13 37 -5
53 26 54 6 0 24 12 40 27 16 15 49 37 74 49 95 44 138 106 175 250 42 161 53
190 81 203 49 22 262 2 271 -26 3 -7 -22 -24 -59 -41 -111 -50 -158 -106 -158
-186 0 -46 31 -66 57 -38 10 10 23 27 30 38 9 16 10 12 6 -23 -5 -38 -3 -43
21 -54 22 -10 29 -9 46 6 11 10 20 25 21 34 0 9 5 3 11 -14 13 -36 24 -44 50
-37 25 6 38 40 27 69 -12 33 -3 48 44 69 23 11 56 31 73 46 l31 28 26 -20 c35
-27 61 -25 76 6 22 49 -19 105 -90 124 -54 15 -53 43 3 71 63 32 140 118 162
180 25 67 28 145 10 206 -16 54 -79 180 -131 261 -88 139 -101 208 -63 330 11
35 20 79 20 98 0 31 -3 34 -29 34 -41 0 -108 -58 -153 -133 -21 -33 -38 -67
-38 -74 0 -7 -3 -13 -7 -13 -17 0 -23 -236 -7 -271 6 -13 32 -67 58 -119 25
-52 46 -103 46 -112 0 -10 -11 -25 -24 -33 -22 -15 -32 -14 -124 5 -205 41
-306 37 -425 -18 -67 -31 -132 -94 -165 -159 -11 -21 -34 -81 -51 -133 -53
-158 -93 -197 -192 -188 -109 11 -168 106 -145 232 13 69 102 151 223 207 213
97 332 162 386 212 100 93 157 256 143 416 -5 69 -4 77 14 89 23 14 28 66 8
79 -7 4 -35 13 -63 19 l-50 11 58 26 c63 29 90 68 65 94 -17 16 -44 18 -133 9
-64 -6 -68 -6 -45 8 14 8 54 20 89 27 98 19 152 80 106 119 -15 13 -24 12
-165 -9 -30 -5 -61 -6 -67 -4 -24 9 -13 22 25 29 65 12 142 45 153 66 6 11 8
31 4 45 -6 25 -7 25 -98 22 -99 -4 -122 7 -59 29 38 12 72 44 72 67 0 17 -61
45 -99 45 -23 0 -34 -6 -40 -22z m-536 -198 c12 -19 -34 -94 -71 -120 -46 -31
-109 -34 -130 -5 -18 24 -18 76 0 101 14 18 38 23 173 32 12 1 25 -3 28 -8z
m-225 -324 c0 -8 -19 -18 -45 -25 -28 -7 -63 -28 -96 -57 l-52 -46 -20 37
c-16 33 -17 39 -4 52 12 13 16 12 30 -2 15 -14 20 -13 68 20 54 37 119 49 119
21z"/>
<path d="M3845 3793 c-34 -37 -39 -53 -19 -60 14 -5 58 31 84 67 l21 30 -26 0
c-17 0 -37 -12 -60 -37z"/>
<path d="M4715 3460 c3 -5 8 -10 11 -10 2 0 4 5 4 10 0 6 -5 10 -11 10 -5 0
-7 -4 -4 -10z"/>
<path d="M5001 3144 c0 -11 3 -14 6 -6 3 7 2 16 -1 19 -3 4 -6 -2 -5 -13z"/>
<path d="M3375 1194 c-248 -34 -421 -107 -563 -239 l-57 -53 -182 -7 -182 -7
-68 60 c-193 170 -394 242 -682 242 -262 0 -454 -42 -939 -205 -350 -117 -465
-149 -605 -166 l-97 -12 0 -169 0 -170 68 7 c132 13 262 48 584 156 487 162
637 200 870 218 226 19 414 -12 585 -94 84 -41 211 -132 257 -183 18 -21 27
-22 198 -22 l179 0 77 66 c194 166 391 234 675 234 255 0 442 -41 947 -210
352 -117 482 -153 613 -166 l67 -7 0 177 0 176 -51 0 c-96 0 -254 41 -629 165
-386 127 -515 163 -680 190 -95 15 -329 27 -385 19z"/>
</g>
</svg>
